<svg xmlns="http://www.w3.org/2000/svg" viewBox="0 0 32 32">
  <path fill="#000000" d="M31.923 14.443c-0.861-8.81-8.713-15.247-17.521-14.362-8.775 0.881-15.182 8.698-14.324 17.476s8.658 15.205 17.438 14.371c8.812-0.838 15.269-8.674 14.408-17.484zM19.996 3.775c0.195-0.001 0.341 0.039 0.523 0.089l0.039 0.011c0.071 0.357 0 0.522-0.187 0.826-0.326 0.531-0.69 1.04-1.053 1.549-0.641 0.898-1.283 1.796-1.722 2.819-0.953 2.218-0.731 4.806-0.506 7.42 0.196 2.288 0.395 4.597-0.192 6.698-0.705 2.527-2.476 4.18-4.693 5.412-0.123 0.021-0.259 0.01-0.389 0-0.027-0.002-0.054-0.004-0.081-0.006-0.017-0.001-0.034-0.002-0.05-0.003l-0.021-0.041c-0.126-0.24-0.134-0.255-0.043-0.528 0.119-0.355 0.355-0.717 0.577-1.059 0.085-0.131 0.168-0.258 0.242-0.381 0.771-1.284 1.526-2.671 1.762-4.169 0.295-1.871 0.138-3.797-0.019-5.722-0.199-2.443-0.399-4.887 0.326-7.22 0.891-2.866 2.976-4.36 5.486-5.694z"/>
</svg>
